ffmpeg started on 2025-05-12 at 18:21:43
Report written to "D:\Convert\FFMetrics\reports\psnr_report-6.txt"
Log level: 32
Command line:
ffmpeg -hide_banner -nostdin -i "G:\\\xc0\xed\xe8\xec\xe5\\\xce\xed\xe3\xee\xe8\xed\xe3\xe8\\!_35_\xcb\xe5\xf2\xee_2024\\DreamCast\\\xce\xf2\xf0\xff\xe4 \xf1\xe0\xec\xee\xf3\xe1\xe8\xe9\xf6 \xe8\xe7 \xe4\xf0\xf3\xe3\xee\xe3\xee \xec\xe8\xf0\xe0\\[DC] Isekai Suicide Squad - 07_Telegram_HEVC.mkv" -i "G:\\\xc0\xed\xe8\xec\xe5\\\xce\xed\xe3\xee\xe8\xed\xe3\xe8\\!_35_\xcb\xe5\xf2\xee_2024\\DreamCast\\\xce\xf2\xf0\xff\xe4 \xf1\xe0\xec\xee\xf3\xe1\xe8\xe9\xf6 \xe8\xe7 \xe4\xf0\xf3\xe3\xee\xe3\xee \xec\xe8\xf0\xe0\\[DC] Isekai Suicide Squad - 07_Telegram.mp4" -lavfi "[0:v]settb=AVTB,setpts=PTS-STARTPTS,format=pix_fmts=yuv420p10,fps=24000/1001,scale=1920:1080:flags=bicubic[main];[1:v]settb=AVTB,setpts=PTS-STARTPTS,format=pix_fmts=yuv420p,fps=24000/1001,scale=1920:1080:flags=bicubic[ref];[main][ref]psnr=eof_action=endall:stats_file='D\\:/Convert/FFMetrics/logs/psnr_logfile-6.txt'" -f null -
Input #0, matroska,webm, from 'G:\Аниме\Онгоинги\!_35_Лето_2024\DreamCast\Отряд самоубийц из другого мира\[DC] Isekai Suicide Squad - 07_Telegram_HEVC.mkv':
  Metadata:
    COMPATIBLE_BRANDS: isomiso2avc1mp41
    MAJOR_BRAND     : isom
    MINOR_VERSION   : 512
    ENCODER         : Lavf61.7.100
  Duration: 00:24:10.03, start: -0.021000, bitrate: 1467 kb/s
  Stream #0:0: Video: hevc (Main 10), yuv420p10le(tv, bt709, progressive), 1920x1080 [SAR 1:1 DAR 16:9], 23.98 fps, 23.98 tbr, 1k tbn (default)
      Metadata:
        HANDLER_NAME    : VideoHandler
        VENDOR_ID       : [0][0][0][0]
        ENCODER         : Lavc61.19.100 libx265
        BPS             : 1271550
        DURATION        : 00:24:09.906708333
        NUMBER_OF_FRAMES: 34763
        NUMBER_OF_BYTES : 230453522
        _STATISTICS_WRITING_APP: mkvpropedit v66.0.0 ('Josie') 64-bit
        _STATISTICS_WRITING_DATE_UTC: 2025-05-09 14:04:57
        _STATISTICS_TAGS: BPS DURATION NUMBER_OF_FRAMES NUMBER_OF_BYTES
  Stream #0:1: Audio: aac (LC), 48000 Hz, stereo, fltp (default)
      Metadata:
        HANDLER_NAME    : SoundHandler
        VENDOR_ID       : [0][0][0][0]
        ENCODER         : Lavc61.19.100 aac
        BPS             : 192434
        DURATION        : 00:24:10.026000000
        NUMBER_OF_FRAMES: 67971
        NUMBER_OF_BYTES : 34879425
        _STATISTICS_WRITING_APP: mkvpropedit v66.0.0 ('Josie') 64-bit
        _STATISTICS_WRITING_DATE_UTC: 2025-05-09 14:04:57
        _STATISTICS_TAGS: BPS DURATION NUMBER_OF_FRAMES NUMBER_OF_BYTES
Input #1, mov,mp4,m4a,3gp,3g2,mj2, from 'G:\Аниме\Онгоинги\!_35_Лето_2024\DreamCast\Отряд самоубийц из другого мира\[DC] Isekai Suicide Squad - 07_Telegram.mp4':
  Metadata:
    major_brand     : isom
    minor_version   : 512
    compatible_brands: isomiso2avc1mp41
    encoder         : Lavf61.1.100
  Duration: 00:24:09.97, start: 0.000000, bitrate: 3902 kb/s
  Stream #1:0[0x1](und): Video: h264 (High) (avc1 / 0x31637661), yuv420p(tv, bt709, progressive), 1920x1080 [SAR 1:1 DAR 16:9], 3754 kb/s, 23.98 fps, 23.98 tbr, 24k tbn (default)
      Metadata:
        handler_name    : VideoHandler
        vendor_id       : [0][0][0][0]
        encoder         : Lavc61.3.100 h264_qsv
  Stream #1:1[0x2](und): Audio: aac (HE-AACv2) (mp4a / 0x6134706D), 48000 Hz, stereo, fltp, 144 kb/s (default)
      Metadata:
        handler_name    : SoundHandler
        vendor_id       : [0][0][0][0]
Stream mapping:
  Stream #0:0 (hevc) -> settb:default
  Stream #1:0 (h264) -> settb:default
  psnr:default -> Stream #0:0 (wrapped_avframe)
  Stream #0:1 -> #0:1 (aac (native) -> pcm_s16le (native))
Output #0, null, to 'pipe:':
  Metadata:
    COMPATIBLE_BRANDS: isomiso2avc1mp41
    MAJOR_BRAND     : isom
    MINOR_VERSION   : 512
    encoder         : Lavf61.7.100
  Stream #0:0: Video: wrapped_avframe, yuv420p10le(tv, bt709, progressive), 1920x1080 [SAR 1:1 DAR 16:9], q=2-31, 200 kb/s, 23.98 fps, 23.98 tbn
      Metadata:
        encoder         : Lavc61.19.100 wrapped_avframe
  Stream #0:1: Audio: pcm_s16le, 48000 Hz, stereo, s16, 1536 kb/s (default)
      Metadata:
        HANDLER_NAME    : SoundHandler
        VENDOR_ID       : [0][0][0][0]
        _STATISTICS_TAGS: BPS DURATION NUMBER_OF_FRAMES NUMBER_OF_BYTES
        BPS             : 192434
        DURATION        : 00:24:10.026000000
        NUMBER_OF_FRAMES: 67971
        NUMBER_OF_BYTES : 34879425
        _STATISTICS_WRITING_APP: mkvpropedit v66.0.0 ('Josie') 64-bit
        _STATISTICS_WRITING_DATE_UTC: 2025-05-09 14:04:57
        encoder         : Lavc61.19.100 pcm_s16le
frame=  169 fps=0.0 q=-0.0 size=N/A time=00:00:07.04 bitrate=N/A speed=13.8x    frame=  364 fps=351 q=-0.0 size=N/A time=00:00:15.18 bitrate=N/A speed=14.7x    frame=  596 fps=386 q=-0.0 size=N/A time=00:00:24.85 bitrate=N/A speed=16.1x    frame=  862 fps=416 q=-0.0 size=N/A time=00:00:35.95 bitrate=N/A speed=17.4x    frame= 1085 fps=418 q=-0.0 size=N/A time=00:00:45.25 bitrate=N/A speed=17.4x    frame= 1322 fps=424 q=-0.0 size=N/A time=00:00:55.13 bitrate=N/A speed=17.7x    frame= 1563 fps=432 q=-0.0 size=N/A time=00:01:05.19 bitrate=N/A speed=  18x    frame= 1818 fps=439 q=-0.0 size=N/A time=00:01:15.82 bitrate=N/A speed=18.3x    frame= 2019 fps=434 q=-0.0 size=N/A time=00:01:24.20 bitrate=N/A speed=18.1x    frame= 2223 fps=430 q=-0.0 size=N/A time=00:01:32.71 bitrate=N/A speed=17.9x    frame= 2441 fps=430 q=-0.0 size=N/A time=00:01:41.81 bitrate=N/A speed=17.9x    frame= 2677 fps=431 q=-0.0 size=N/A time=00:01:51.65 bitrate=N/A speed=  18x    frame= 2912 fps=434 q=-0.0 size=N/A time=00:02:01.45 bitrate=N/A speed=18.1x    frame= 3161 fps=437 q=-0.0 size=N/A time=00:02:11.84 bitrate=N/A speed=18.2x    frame= 3412 fps=441 q=-0.0 size=N/A time=00:02:22.30 bitrate=N/A speed=18.4x    frame= 3659 fps=443 q=-0.0 size=N/A time=00:02:32.61 bitrate=N/A speed=18.5x    frame= 3893 fps=444 q=-0.0 size=N/A time=00:02:42.37 bitrate=N/A speed=18.5x    frame= 4117 fps=443 q=-0.0 size=N/A time=00:02:51.71 bitrate=N/A speed=18.5x    frame= 4359 fps=444 q=-0.0 size=N/A time=00:03:01.80 bitrate=N/A speed=18.5x    frame= 4578 fps=443 q=-0.0 size=N/A time=00:03:10.94 bitrate=N/A speed=18.5x    frame= 4799 fps=442 q=-0.0 size=N/A time=00:03:20.15 bitrate=N/A speed=18.4x    frame= 5027 fps=441 q=-0.0 size=N/A time=00:03:29.66 bitrate=N/A speed=18.4x    frame= 5247 fps=441 q=-0.0 size=N/A time=00:03:38.84 bitrate=N/A speed=18.4x    frame= 5497 fps=443 q=-0.0 size=N/A time=00:03:49.27 bitrate=N/A speed=18.5x    frame= 5738 fps=443 q=-0.0 size=N/A time=00:03:59.32 bitrate=N/A speed=18.5x    frame= 5943 fps=442 q=-0.0 size=N/A time=00:04:07.87 bitrate=N/A speed=18.4x    frame= 6194 fps=443 q=-0.0 size=N/A time=00:04:18.34 bitrate=N/A speed=18.5x    frame= 6416 fps=443 q=-0.0 size=N/A time=00:04:27.60 bitrate=N/A speed=18.5x    frame= 6665 fps=444 q=-0.0 size=N/A time=00:04:37.98 bitrate=N/A speed=18.5x    frame= 6916 fps=446 q=-0.0 size=N/A time=00:04:48.45 bitrate=N/A speed=18.6x    frame= 7145 fps=446 q=-0.0 size=N/A time=00:04:58.00 bitrate=N/A speed=18.6x    frame= 7408 fps=448 q=-0.0 size=N/A time=00:05:08.97 bitrate=N/A speed=18.7x    frame= 7648 fps=448 q=-0.0 size=N/A time=00:05:18.98 bitrate=N/A speed=18.7x    frame= 7873 fps=448 q=-0.0 size=N/A time=00:05:28.36 bitrate=N/A speed=18.7x    frame= 8106 fps=448 q=-0.0 size=N/A time=00:05:38.08 bitrate=N/A speed=18.7x    frame= 8321 fps=447 q=-0.0 size=N/A time=00:05:47.05 bitrate=N/A speed=18.6x    frame= 8560 fps=448 q=-0.0 size=N/A time=00:05:57.02 bitrate=N/A speed=18.7x    frame= 8774 fps=447 q=-0.0 size=N/A time=00:06:05.94 bitrate=N/A speed=18.6x    frame= 8989 fps=446 q=-0.0 size=N/A time=00:06:14.91 bitrate=N/A speed=18.6x    frame= 9222 fps=446 q=-0.0 size=N/A time=00:06:24.63 bitrate=N/A speed=18.6x    frame= 9441 fps=445 q=-0.0 size=N/A time=00:06:33.76 bitrate=N/A speed=18.6x    frame= 9685 fps=446 q=-0.0 size=N/A time=00:06:43.94 bitrate=N/A speed=18.6x    frame= 9925 fps=447 q=-0.0 size=N/A time=00:06:53.95 bitrate=N/A speed=18.6x    frame=10154 fps=447 q=-0.0 size=N/A time=00:07:03.50 bitrate=N/A speed=18.6x    frame=10392 fps=447 q=-0.0 size=N/A time=00:07:13.43 bitrate=N/A speed=18.6x    frame=10638 fps=448 q=-0.0 size=N/A time=00:07:23.69 bitrate=N/A speed=18.7x    frame=10900 fps=449 q=-0.0 size=N/A time=00:07:34.62 bitrate=N/A speed=18.7x    frame=11145 fps=449 q=-0.0 size=N/A time=00:07:44.83 bitrate=N/A speed=18.7x    frame=11339 fps=448 q=-0.0 size=N/A time=00:07:52.93 bitrate=N/A speed=18.7x    frame=11579 fps=448 q=-0.0 size=N/A time=00:08:02.94 bitrate=N/A speed=18.7x    frame=11799 fps=448 q=-0.0 size=N/A time=00:08:12.11 bitrate=N/A speed=18.7x    frame=12019 fps=447 q=-0.0 size=N/A time=00:08:21.29 bitrate=N/A speed=18.7x    frame=12257 fps=448 q=-0.0 size=N/A time=00:08:31.21 bitrate=N/A speed=18.7x    frame=12478 fps=447 q=-0.0 size=N/A time=00:08:40.43 bitrate=N/A speed=18.7x    frame=12706 fps=447 q=-0.0 size=N/A time=00:08:49.94 bitrate=N/A speed=18.7x    frame=12936 fps=447 q=-0.0 size=N/A time=00:08:59.53 bitrate=N/A speed=18.7x    frame=13137 fps=446 q=-0.0 size=N/A time=00:09:07.92 bitrate=N/A speed=18.6x    frame=13361 fps=446 q=-0.0 size=N/A time=00:09:17.26 bitrate=N/A speed=18.6x    frame=13552 fps=445 q=-0.0 size=N/A time=00:09:25.23 bitrate=N/A speed=18.6x    frame=13774 fps=445 q=-0.0 size=N/A time=00:09:34.49 bitrate=N/A speed=18.5x    frame=14024 fps=445 q=-0.0 size=N/A time=00:09:44.91 bitrate=N/A speed=18.6x    frame=14252 fps=445 q=-0.0 size=N/A time=00:09:54.42 bitrate=N/A speed=18.6x    frame=14490 fps=445 q=-0.0 size=N/A time=00:10:04.35 bitrate=N/A speed=18.6x    frame=14728 fps=446 q=-0.0 size=N/A time=00:10:14.28 bitrate=N/A speed=18.6x    frame=14991 fps=447 q=-0.0 size=N/A time=00:10:25.24 bitrate=N/A speed=18.6x    frame=15238 fps=447 q=-0.0 size=N/A time=00:10:35.55 bitrate=N/A speed=18.7x    frame=15493 fps=448 q=-0.0 size=N/A time=00:10:46.18 bitrate=N/A speed=18.7x    frame=15719 fps=448 q=-0.0 size=N/A time=00:10:55.61 bitrate=N/A speed=18.7x    frame=15941 fps=447 q=-0.0 size=N/A time=00:11:04.87 bitrate=N/A speed=18.7x    frame=16151 fps=447 q=-0.0 size=N/A time=00:11:13.63 bitrate=N/A speed=18.6x    frame=16383 fps=447 q=-0.0 size=N/A time=00:11:23.30 bitrate=N/A speed=18.6x    frame=16600 fps=447 q=-0.0 size=N/A time=00:11:32.35 bitrate=N/A speed=18.6x    frame=16865 fps=447 q=-0.0 size=N/A time=00:11:43.41 bitrate=N/A speed=18.7x    frame=17102 fps=448 q=-0.0 size=N/A time=00:11:53.29 bitrate=N/A speed=18.7x    frame=17341 fps=448 q=-0.0 size=N/A time=00:12:03.26 bitrate=N/A speed=18.7x    frame=17555 fps=447 q=-0.0 size=N/A time=00:12:12.18 bitrate=N/A speed=18.7x    frame=17785 fps=447 q=-0.0 size=N/A time=00:12:21.78 bitrate=N/A speed=18.7x    frame=17989 fps=447 q=-0.0 size=N/A time=00:12:30.29 bitrate=N/A speed=18.6x    frame=18224 fps=447 q=-0.0 size=N/A time=00:12:40.09 bitrate=N/A speed=18.6x    frame=18427 fps=446 q=-0.0 size=N/A time=00:12:48.55 bitrate=N/A speed=18.6x    frame=18652 fps=446 q=-0.0 size=N/A time=00:12:57.94 bitrate=N/A speed=18.6x    frame=18884 fps=446 q=-0.0 size=N/A time=00:13:07.62 bitrate=N/A speed=18.6x    frame=19070 fps=445 q=-0.0 size=N/A time=00:13:15.37 bitrate=N/A speed=18.6x    frame=19265 fps=444 q=-0.0 size=N/A time=00:13:23.51 bitrate=N/A speed=18.5x    frame=19463 fps=444 q=-0.0 size=N/A time=00:13:31.76 bitrate=N/A speed=18.5x    frame=19630 fps=442 q=-0.0 size=N/A time=00:13:38.73 bitrate=N/A speed=18.4x    frame=19853 fps=442 q=-0.0 size=N/A time=00:13:48.03 bitrate=N/A speed=18.4x    frame=20092 fps=442 q=-0.0 size=N/A time=00:13:58.00 bitrate=N/A speed=18.4x    frame=20314 fps=442 q=-0.0 size=N/A time=00:14:07.26 bitrate=N/A speed=18.4x    frame=20558 fps=443 q=-0.0 size=N/A time=00:14:17.43 bitrate=N/A speed=18.5x    frame=20802 fps=443 q=-0.0 size=N/A time=00:14:27.61 bitrate=N/A speed=18.5x    frame=21047 fps=443 q=-0.0 size=N/A time=00:14:37.83 bitrate=N/A speed=18.5x    frame=21288 fps=443 q=-0.0 size=N/A time=00:14:47.88 bitrate=N/A speed=18.5x    frame=21475 fps=443 q=-0.0 size=N/A time=00:14:55.68 bitrate=N/A speed=18.5x    frame=21690 fps=442 q=-0.0 size=N/A time=00:15:04.65 bitrate=N/A speed=18.4x    frame=21909 fps=442 q=-0.0 size=N/A time=00:15:13.78 bitrate=N/A speed=18.4x    frame=22114 fps=442 q=-0.0 size=N/A time=00:15:22.33 bitrate=N/A speed=18.4x    frame=22329 fps=441 q=-0.0 size=N/A time=00:15:31.30 bitrate=N/A speed=18.4x    frame=22550 fps=441 q=-0.0 size=N/A time=00:15:40.52 bitrate=N/A speed=18.4x    frame=22767 fps=441 q=-0.0 size=N/A time=00:15:49.57 bitrate=N/A speed=18.4x    frame=22981 fps=441 q=-0.0 size=N/A time=00:15:58.49 bitrate=N/A speed=18.4x    frame=23213 fps=441 q=-0.0 size=N/A time=00:16:08.17 bitrate=N/A speed=18.4x    frame=23464 fps=441 q=-0.0 size=N/A time=00:16:18.64 bitrate=N/A speed=18.4x    frame=23705 fps=442 q=-0.0 size=N/A time=00:16:28.69 bitrate=N/A speed=18.4x    frame=23954 fps=442 q=-0.0 size=N/A time=00:16:39.08 bitrate=N/A speed=18.4x    frame=24172 fps=442 q=-0.0 size=N/A time=00:16:48.17 bitrate=N/A speed=18.4x    frame=24387 fps=441 q=-0.0 size=N/A time=00:16:57.14 bitrate=N/A speed=18.4x    frame=24622 fps=442 q=-0.0 size=N/A time=00:17:06.94 bitrate=N/A speed=18.4x    frame=24849 fps=442 q=-0.0 size=N/A time=00:17:16.41 bitrate=N/A speed=18.4x    frame=25062 fps=441 q=-0.0 size=N/A time=00:17:25.29 bitrate=N/A speed=18.4x    frame=25315 fps=442 q=-0.0 size=N/A time=00:17:35.84 bitrate=N/A speed=18.4x    frame=25529 fps=442 q=-0.0 size=N/A time=00:17:44.77 bitrate=N/A speed=18.4x    frame=25779 fps=442 q=-0.0 size=N/A time=00:17:55.19 bitrate=N/A speed=18.4x    frame=26028 fps=442 q=-0.0 size=N/A time=00:18:05.58 bitrate=N/A speed=18.4x    frame=26274 fps=443 q=-0.0 size=N/A time=00:18:15.84 bitrate=N/A speed=18.5x    frame=26525 fps=443 q=-0.0 size=N/A time=00:18:26.31 bitrate=N/A speed=18.5x    frame=26749 fps=443 q=-0.0 size=N/A time=00:18:35.65 bitrate=N/A speed=18.5x    frame=26968 fps=443 q=-0.0 size=N/A time=00:18:44.79 bitrate=N/A speed=18.5x    frame=27204 fps=443 q=-0.0 size=N/A time=00:18:54.63 bitrate=N/A speed=18.5x    frame=27412 fps=443 q=-0.0 size=N/A time=00:19:03.30 bitrate=N/A speed=18.5x    frame=27638 fps=442 q=-0.0 size=N/A time=00:19:12.73 bitrate=N/A speed=18.5x    frame=27874 fps=443 q=-0.0 size=N/A time=00:19:22.57 bitrate=N/A speed=18.5x    frame=28104 fps=443 q=-0.0 size=N/A time=00:19:32.17 bitrate=N/A speed=18.5x    frame=28324 fps=442 q=-0.0 size=N/A time=00:19:41.34 bitrate=N/A speed=18.5x    frame=28515 fps=442 q=-0.0 size=N/A time=00:19:49.31 bitrate=N/A speed=18.4x    frame=28705 fps=441 q=-0.0 size=N/A time=00:19:57.23 bitrate=N/A speed=18.4x    frame=28890 fps=441 q=-0.0 size=N/A time=00:20:04.95 bitrate=N/A speed=18.4x    frame=29103 fps=440 q=-0.0 size=N/A time=00:20:13.83 bitrate=N/A speed=18.4x    frame=29293 fps=440 q=-0.0 size=N/A time=00:20:21.76 bitrate=N/A speed=18.3x    frame=29479 fps=439 q=-0.0 size=N/A time=00:20:29.51 bitrate=N/A speed=18.3x    frame=29641 fps=438 q=-0.0 size=N/A time=00:20:36.27 bitrate=N/A speed=18.3x    frame=29817 fps=437 q=-0.0 size=N/A time=00:20:43.61 bitrate=N/A speed=18.2x    frame=29971 fps=436 q=-0.0 size=N/A time=00:20:50.04 bitrate=N/A speed=18.2x    frame=30121 fps=435 q=-0.0 size=N/A time=00:20:56.29 bitrate=N/A speed=18.2x    frame=30297 fps=435 q=-0.0 size=N/A time=00:21:03.63 bitrate=N/A speed=18.1x    frame=30494 fps=434 q=-0.0 size=N/A time=00:21:11.85 bitrate=N/A speed=18.1x    frame=30702 fps=434 q=-0.0 size=N/A time=00:21:20.52 bitrate=N/A speed=18.1x    frame=30900 fps=434 q=-0.0 size=N/A time=00:21:28.78 bitrate=N/A speed=18.1x    frame=31074 fps=433 q=-0.0 size=N/A time=00:21:36.04 bitrate=N/A speed=18.1x    frame=31283 fps=433 q=-0.0 size=N/A time=00:21:44.76 bitrate=N/A speed=  18x    frame=31493 fps=433 q=-0.0 size=N/A time=00:21:53.52 bitrate=N/A speed=  18x    frame=31712 fps=433 q=-0.0 size=N/A time=00:22:02.65 bitrate=N/A speed=  18x    frame=31956 fps=433 q=-0.0 size=N/A time=00:22:12.83 bitrate=N/A speed=  18x    frame=32204 fps=433 q=-0.0 size=N/A time=00:22:23.17 bitrate=N/A speed=18.1x    frame=32446 fps=433 q=-0.0 size=N/A time=00:22:33.26 bitrate=N/A speed=18.1x    frame=32679 fps=433 q=-0.0 size=N/A time=00:22:42.98 bitrate=N/A speed=18.1x    frame=32896 fps=433 q=-0.0 size=N/A time=00:22:52.03 bitrate=N/A speed=18.1x    frame=33128 fps=433 q=-0.0 size=N/A time=00:23:01.71 bitrate=N/A speed=18.1x    frame=33346 fps=433 q=-0.0 size=N/A time=00:23:10.80 bitrate=N/A speed=18.1x    frame=33577 fps=433 q=-0.0 size=N/A time=00:23:20.44 bitrate=N/A speed=18.1x    frame=33817 fps=434 q=-0.0 size=N/A time=00:23:30.45 bitrate=N/A speed=18.1x    frame=34060 fps=434 q=-0.0 size=N/A time=00:23:40.58 bitrate=N/A speed=18.1x    frame=34292 fps=434 q=-0.0 size=N/A time=00:23:50.26 bitrate=N/A speed=18.1x    frame=34537 fps=434 q=-0.0 size=N/A time=00:24:00.48 bitrate=N/A speed=18.1x    [Parsed_psnr_10 @ 000001f68560c100] PSNR y:47.557287 u:50.289272 v:50.177227 average:48.280064 min:40.257893 max:inf
[out#0/null @ 000001f6852834c0] video:14937KiB audio:271884KiB subtitle:0KiB other streams:0KiB global headers:0KiB muxing overhead: unknown
frame=34763 fps=435 q=-0.0 Lsize=N/A time=00:24:09.90 bitrate=N/A speed=18.1x    
